<mxfile host="app.diagrams.net" modified="2024-02-23T18:21:51.394Z" agent="Mozilla/5.0 (Macintosh; Intel Mac OS X 10_15_7) AppleWebKit/537.36 (KHTML, like Gecko) Chrome/121.0.0.0 Safari/537.36" version="23.1.6" etag="wsdIZin84ObFRqfzDP7L" type="github">
  <diagram name="Page-1" id="Ca9Ep8XHKhC-UQZNDjdc">
    <mxGraphModel>
      <root>
        <mxCell id="0" />
        <mxCell id="1" parent="0" />
      </root>
    </mxGraphModel>
  </diagram>
</mxfile>
